<?xml version="1.0" standalone="no"?>
<!DOCTYPE svg PUBLIC "-//W3C//DTD SVG 20010904//EN"
 "http://www.w3.org/TR/2001/REC-SVG-20010904/DTD/svg10.dtd">
<svg version="1.0" xmlns="http://www.w3.org/2000/svg"
 width="150.000000pt" height="150.000000pt" viewBox="0 0 150.000000 150.000000"
 preserveAspectRatio="xMidYMid meet">
<metadata>
Created by potrace 1.14, written by Peter Selinger 2001-2017
</metadata>
<g transform="translate(0.000000,150.000000) scale(0.100000,-0.100000)"
fill="#000000" stroke="none">
<path d="M815 1432 c3 -3 -2 -14 -12 -24 -9 -10 -12 -18 -7 -18 6 0 10 -9 11
-21 1 -14 -3 -19 -12 -15 -8 3 -17 -3 -20 -14 -9 -27 -33 -50 -53 -50 -15 0
-15 2 -2 10 12 8 12 10 1 10 -9 0 -10 4 -3 13 6 7 6 21 1 36 -8 19 -12 21 -24
11 -10 -9 -15 -9 -15 -1 0 6 -9 4 -19 -6 -11 -9 -18 -20 -16 -23 2 -4 -11 -24
-30 -44 -19 -22 -36 -32 -40 -26 -3 6 -10 8 -14 6 -4 -3 -14 4 -21 14 -9 13
-18 16 -25 10 -8 -6 -18 -4 -31 6 -10 8 -13 12 -6 9 11 -6 11 -3 0 14 -7 12
-21 21 -32 21 -25 0 -56 -37 -56 -67 0 -14 -6 -23 -16 -23 -8 0 -13 -4 -10 -9
3 -5 -2 -15 -11 -22 -14 -12 -16 -12 -8 0 5 10 4 12 -3 7 -7 -4 -12 -14 -12
-22 0 -8 -4 -14 -10 -14 -5 0 -10 10 -10 23 0 12 -4 28 -8 35 -11 17 -53 9
-66 -11 -9 -14 -5 -22 16 -40 24 -21 25 -24 10 -35 -12 -9 -12 -11 -2 -7 10 5
10 2 -2 -8 -10 -8 -15 -16 -13 -19 3 -3 -1 -17 -8 -31 -8 -15 -17 -24 -20 -20
-7 7 -8 4 -13 -37 -19 -154 -11 -260 19 -260 6 0 1 -7 -11 -16 -25 -17 -28
-65 -8 -93 9 -12 8 -13 -3 -6 -9 5 -5 -5 7 -22 23 -33 29 -63 11 -63 -5 0 -7
-4 -4 -10 3 -5 1 -10 -5 -10 -6 0 -8 -11 -6 -25 3 -14 1 -25 -3 -25 -9 0 -8
-61 1 -75 4 -6 3 -17 -2 -25 -5 -8 -5 -22 1 -32 7 -13 6 -18 -2 -18 -9 0 -9
-3 0 -14 9 -11 9 -17 -2 -27 -31 -32 -25 -53 28 -106 40 -38 56 -48 64 -40 9
9 13 6 18 -11 3 -14 11 -21 19 -18 7 3 15 0 18 -7 3 -9 5 -8 5 1 1 7 5 11 10
7 5 -3 16 2 25 10 9 10 17 11 21 5 4 -6 11 -8 16 -5 5 4 9 2 9 -3 0 -5 19 -9
42 -10 23 -1 46 -6 51 -11 10 -10 47 -3 47 9 0 5 14 7 30 5 22 -3 29 -1 25 8
-4 7 0 4 8 -6 17 -20 36 -19 54 3 7 9 12 10 13 4 0 -7 14 -14 31 -16 25 -4 33
0 42 19 5 12 15 23 21 23 6 0 4 5 -4 10 -11 7 -11 10 -2 10 7 0 12 7 10 16 -2
10 5 18 15 19 12 2 17 -4 17 -21 0 -13 5 -24 10 -24 6 0 10 -8 11 -17 0 -10 3
-13 5 -6 3 7 12 9 20 6 10 -3 14 2 14 18 l0 22 26 -24 c14 -13 21 -25 16 -27
-6 -2 -8 -12 -5 -22 6 -21 53 -29 53 -10 0 6 7 10 15 10 8 0 15 -4 15 -10 0
-5 9 -10 20 -10 12 0 20 6 18 13 -1 6 4 23 12 37 8 14 20 34 26 45 6 11 16 19
22 18 6 -2 9 6 7 17 -2 10 3 24 11 31 8 6 14 8 14 4 0 -4 7 -2 15 5 12 10 15
10 15 0 0 -10 3 -10 14 -1 8 6 20 10 27 9 8 -2 15 8 17 22 2 13 10 29 17 35
18 15 27 45 12 45 -8 0 -6 4 3 10 8 5 11 10 6 10 -5 0 -3 7 4 15 7 8 9 15 4
15 -5 0 -3 4 5 9 13 8 13 15 1 50 -10 31 -11 47 -2 64 18 37 23 137 6 144 -8
3 -12 9 -9 13 3 5 -1 15 -9 23 -8 8 -12 17 -9 21 6 6 -13 10 -31 7 -5 -1 -4 4
2 12 6 7 10 24 7 36 -3 17 0 21 10 17 8 -3 14 -2 13 2 -1 4 1 14 4 22 4 8 9
23 12 33 3 10 10 15 16 12 5 -3 11 0 12 7 0 7 2 18 2 23 1 6 4 15 7 20 4 6 5
18 4 28 -2 9 2 17 8 17 9 0 9 2 1 8 -6 4 -12 14 -12 22 -1 8 -3 35 -5 59 -2
26 -10 48 -20 56 -9 7 -17 20 -17 30 0 10 3 16 6 12 8 -8 47 30 50 49 1 8 -6
24 -17 35 -10 10 -19 15 -19 9 0 -5 -7 -6 -17 -3 -9 4 -14 2 -10 -3 3 -6 -3
-15 -14 -22 -12 -8 -19 -9 -19 -1 0 5 -4 7 -10 4 -5 -3 -10 1 -10 10 0 9 -4
14 -9 11 -15 -9 -29 17 -33 59 -2 25 -8 39 -15 38 -7 -2 -13 2 -13 7 0 6 -9
10 -20 10 -14 0 -21 -9 -25 -37 -10 -56 -13 -63 -30 -63 -9 0 -13 5 -10 11 5
7 -5 9 -26 7 -21 -2 -34 -8 -34 -17 0 -8 -15 -21 -32 -28 -21 -8 -33 -9 -33
-3 0 7 -6 7 -19 0 -26 -13 -36 3 -15 24 8 9 11 16 5 16 -6 0 -8 7 -5 15 4 9 0
15 -9 15 -8 0 -17 9 -20 20 -3 11 0 20 5 20 7 0 6 5 -1 13 -6 8 -8 16 -5 19 3
3 -9 8 -25 10 -17 3 -29 2 -26 0z"/>
<path d="M171 354 c0 -11 3 -14 6 -6 3 7 2 16 -1 19 -3 4 -6 -2 -5 -13z"/>
</g>
</svg>
