<?xml version="1.0" standalone="no"?>
<!DOCTYPE svg PUBLIC "-//W3C//DTD SVG 20010904//EN"
 "http://www.w3.org/TR/2001/REC-SVG-20010904/DTD/svg10.dtd">
<svg version="1.0" xmlns="http://www.w3.org/2000/svg"
 width="796.000000pt" height="796.000000pt" viewBox="0 0 796.000000 796.000000"
 preserveAspectRatio="xMidYMid meet">
<metadata>
Created by potrace 1.14, written by Peter Selinger 2001-2017
</metadata>
<g transform="translate(0.000000,796.000000) scale(0.100000,-0.100000)"
fill="#000000" stroke="none">
<path d="M3730 7119 c-528 -61 -1009 -237 -1395 -512 -309 -220 -564 -509
-717 -810 l-45 -88 -37 50 c-207 282 -539 320 -776 89 -415 -405 -321 -1292
161 -1512 158 -73 339 -44 498 78 33 25 62 46 64 46 3 0 9 -15 12 -32 12 -53
83 -227 129 -313 195 -368 503 -685 893 -917 l104 -62 -6 -46 c-17 -126 -21
-203 -18 -366 1 -99 7 -210 12 -249 8 -57 8 -73 -4 -84 -12 -12 -10 -21 10
-60 13 -25 40 -101 59 -169 55 -189 128 -354 227 -515 74 -119 133 -191 254
-310 253 -251 542 -381 869 -392 433 -14 831 195 1126 593 87 117 200 327 255
476 20 54 43 105 51 113 8 8 12 19 9 23 -3 5 5 69 19 142 42 229 47 272 50
452 2 121 -2 183 -19 332 l-7 62 73 43 c334 193 618 455 813 749 70 105 163
286 207 403 31 84 33 87 53 72 171 -122 344 -141 511 -58 172 87 308 277 372
521 32 124 40 350 16 481 -56 316 -239 564 -465 632 -57 18 -87 21 -157 17
-130 -8 -219 -53 -338 -170 -35 -33 -65 -59 -66 -57 -2 2 -21 36 -42 74 -285
520 -812 933 -1453 1139 -192 61 -436 113 -632 135 -108 11 -571 12 -670 0z"/>
</g>
</svg>
